HIERARCHY
ROOT mixamorig:Hips
{
  OFFSET 0.000000 0.000000 0.000000
  CHANNELS 6 Xposition Yposition Zposition Xrotation Yrotation Zrotation
  JOINT mixamorig:Spine
  {
    OFFSET 1.719088 25.168327 -4.215464
    CHANNELS 3 Xrotation Yrotation Zrotation
    JOINT mixamorig:Spine2
    {
      OFFSET 1.719088 25.168327 -4.215464
      CHANNELS 3 Xrotation Yrotation Zrotation
      JOINT mixamorig:Neck
      {
        OFFSET 0.000000 4.406908 0.000000
        CHANNELS 3 Xrotation Yrotation Zrotation
        JOINT mixamorig:Head
        {
          OFFSET 0.000000 5.131571 0.000000
          CHANNELS 3 Xrotation Yrotation Zrotation
          End Site
          {
            OFFSET 0.000000 1.539471 0.000000
          }
        }
      }
      JOINT mixamorig:LeftShoulder
      {
        OFFSET 16.992445 2.816427 -1.180073
        CHANNELS 3 Xrotation Yrotation Zrotation
        JOINT mixamorig:LeftArm
        {
          OFFSET 18.068965 -3.121954 -11.587926
          CHANNELS 3 Xrotation Yrotation Zrotation
          JOINT mixamorig:LeftForeArm
          {
            OFFSET -5.408186 3.708938 -12.576431
            CHANNELS 3 Xrotation Yrotation Zrotation
            JOINT mixamorig:LeftHand
            {
              OFFSET -4.000407 1.106506 -1.590694
              CHANNELS 3 Xrotation Yrotation Zrotation
              End Site
              {
                OFFSET -1.200122 0.331952 -0.477208
              }
            }
          }
        }
      }
      JOINT mixamorig:RightShoulder
      {
        OFFSET -16.992445 2.816427 1.180073
        CHANNELS 3 Xrotation Yrotation Zrotation
        JOINT mixamorig:RightArm
        {
          OFFSET -17.304324 -8.555022 -19.418815
          CHANNELS 3 Xrotation Yrotation Zrotation
          JOINT mixamorig:RightForeArm
          {
            OFFSET 6.382291 6.914577 -18.508580
            CHANNELS 3 Xrotation Yrotation Zrotation
            JOINT mixamorig:RightHand
            {
              OFFSET 5.389738 2.442453 -3.552078
              CHANNELS 3 Xrotation Yrotation Zrotation
              End Site
              {
                OFFSET 1.616921 0.732736 -1.065623
              }
            }
          }
        }
      }
    }
  }
  JOINT mixamorig:LeftUpLeg
  {
    OFFSET 9.167292 0.244222 2.969378
    CHANNELS 3 Xrotation Yrotation Zrotation
    JOINT mixamorig:LeftLeg
    {
      OFFSET 0.950825 -44.361071 -2.100328
      CHANNELS 3 Xrotation Yrotation Zrotation
      JOINT mixamorig:LeftFoot
      {
        OFFSET -0.880896 -36.612737 19.559270
        CHANNELS 3 Xrotation Yrotation Zrotation
        JOINT mixamorig:LeftToeBase
        {
          OFFSET 3.220046 -3.157198 -4.466946
          CHANNELS 3 Xrotation Yrotation Zrotation
          End Site
          {
            OFFSET 0.966014 -0.947160 -1.340084
          }
        }
      }
    }
  }
  JOINT mixamorig:RightUpLeg
  {
    OFFSET -9.167292 -0.244222 -2.969378
    CHANNELS 3 Xrotation Yrotation Zrotation
    JOINT mixamorig:RightLeg
    {
      OFFSET 3.688810 -35.639201 3.437236
      CHANNELS 3 Xrotation Yrotation Zrotation
      JOINT mixamorig:RightFoot
      {
        OFFSET -4.221295 -41.549927 18.088705
        CHANNELS 3 Xrotation Yrotation Zrotation
        JOINT mixamorig:RightToeBase
        {
          OFFSET -4.472390 -1.075068 -9.863885
          CHANNELS 3 Xrotation Yrotation Zrotation
          End Site
          {
            OFFSET -1.341717 -0.322520 -2.959165
          }
        }
      }
    }
  }
}
MOTION
Frames: 13
Frame Time: 0.083333
0.062342 0.256465 0.158338 6.711364 -0.782989 -3.688196 -0.000000 0.000000 -0.000000 -8.705083 11.789489 3.720268 -23.191308 -8.138613 -11.499760 -19.883838 -13.047609 -8.531793 -15.314255 49.618188 -45.712386 28.341387 -5.347897 68.459537 44.890059 -59.318440 -61.415374 0.000000 0.000000 0.000000 -15.789096 -45.250468 20.467653 5.238889 11.547010 -39.456527 2.587151 11.901232 6.899684 0.000000 0.000000 0.000000 -4.292807 0.524282 2.456859 -2.328479 -2.204831 -2.641040 -21.252961 7.096890 -17.648690 0.000000 0.000000 0.000000 10.741877 4.901043 -0.600400 -24.812652 -0.611076 4.515427 -19.174264 -2.863778 7.698572 0.000000 0.000000 0.000000
0.073983 0.333148 0.132768 10.492958 -1.261259 -8.275655 -0.000000 0.000000 -0.000000 -8.101461 19.790817 6.702098 -28.281304 -13.931366 -15.534602 -20.368376 -21.646422 -8.843686 -33.134259 50.341876 -86.628839 31.650220 36.362400 117.510413 -20.398900 -39.569705 -48.912809 0.000000 0.000000 0.000000 -40.769511 -48.374484 25.550658 16.730365 -24.119599 -71.726963 -12.808888 27.866045 26.418699 0.000000 0.000000 0.000000 -7.775999 0.485465 3.478379 2.266653 -1.366506 2.629290 -22.986136 6.528373 -16.677418 0.000000 0.000000 0.000000 43.017535 16.485538 -4.358138 -58.017467 -5.782191 -1.693466 -33.868667 -0.501106 14.081132 0.000000 0.000000 0.000000
0.081743 0.366991 0.107697 12.976035 -1.520159 -12.368336 -0.000000 0.000000 0.000000 -7.564830 25.934033 8.791014 -32.999268 -17.853521 -19.068593 -20.157343 -28.159369 -8.745214 -32.876862 50.937181 -96.810463 39.887677 33.582720 98.008813 -3.631041 -11.921203 -57.637314 0.000000 0.000000 0.000000 -46.122970 -44.992434 19.828801 18.431738 -31.174083 -66.857805 -22.928247 31.735400 32.278138 0.000000 0.000000 0.000000 -9.230652 0.188477 5.805410 7.597464 -0.785730 4.778163 -17.708487 15.156087 -12.524501 0.000000 0.000000 0.000000 88.963363 32.351675 -9.723252 -93.094020 -8.510779 -25.758026 -38.855791 4.073044 21.509715 0.000000 0.000000 0.000000
0.075022 0.368456 0.096869 12.045012 -1.658229 -14.067619 -0.000000 0.000000 0.000000 -7.507204 26.576035 10.588878 -29.052926 -18.443135 -18.121678 -16.622874 -28.445262 -8.605382 -29.687848 52.100142 -93.670907 51.383205 15.050551 -28.115732 7.534596 10.753435 -59.575852 0.000000 0.000000 0.000000 -27.116149 -39.693577 10.887227 21.452027 -13.589799 -29.503434 -17.996702 37.482584 21.638321 0.000000 0.000000 0.000000 -7.347068 0.528809 8.232318 11.680453 -0.978601 2.701431 -15.574316 11.410842 -2.178040 0.000000 0.000000 0.000000 116.735252 39.351441 -14.556287 -114.062724 -5.747917 -62.006884 -28.062221 18.346247 39.339004 0.000000 0.000000 0.000000
0.065600 0.376466 0.095307 10.435838 -1.730497 -13.866677 -0.000000 0.000000 0.000000 -7.543786 26.984591 11.067790 -7.687935 -17.539906 -11.530278 -2.955389 -24.747475 -10.279310 -42.455657 53.304515 -137.076922 -26.894691 32.205483 -126.764772 -13.815754 14.955833 -63.477103 0.000000 0.000000 0.000000 -29.432302 -35.388517 11.407703 19.807882 -28.388285 -37.170064 -16.043073 24.249455 22.828476 0.000000 0.000000 0.000000 -4.851403 1.228545 8.898687 14.864020 -1.153474 0.776591 -22.051223 5.689884 0.546680 0.000000 0.000000 0.000000 125.244997 47.517105 -22.842679 -110.743250 -15.771507 -106.134723 -22.581935 34.051909 63.269474 0.000000 0.000000 0.000000
0.074607 0.379815 0.101514 11.537910 -1.633592 -13.457725 0.000000 0.000000 -0.000000 -7.425568 27.890500 9.900760 24.549498 -20.264546 2.969593 18.593776 -22.659408 -6.067721 -55.303203 49.419209 -146.488278 -52.996629 3.849461 -55.241363 -30.326576 26.567316 -114.237270 0.000000 0.000000 0.000000 -34.310229 -32.534116 11.841213 24.035918 -35.316995 -38.903572 -16.643254 22.115648 25.465254 0.000000 0.000000 0.000000 -5.976032 0.809735 8.961229 14.411737 -1.497703 -0.391123 -23.482544 -0.087323 3.173414 0.000000 0.000000 0.000000 118.301412 55.175774 -29.199511 -94.522836 -26.127701 -126.994270 -11.187492 23.538577 61.922564 0.000000 0.000000 0.000000
0.104410 0.372037 0.093254 15.285695 -1.481730 -14.351797 0.000000 0.000000 -0.000000 -7.151330 29.121907 8.563428 19.115931 -21.554695 2.554024 13.757256 -25.063820 -5.260039 -65.866999 46.788306 -154.485227 -60.153487 -6.551963 -40.751747 -23.917898 30.814649 -123.445486 0.000000 0.000000 0.000000 -42.731668 -29.135665 12.012055 29.630160 -48.194892 -43.152335 -22.646786 20.048170 31.725076 0.000000 0.000000 0.000000 -9.937600 -0.362462 8.803444 13.925548 -1.464195 0.327552 -21.260337 4.719132 1.403861 0.000000 0.000000 0.000000 109.057612 53.572550 -25.702804 -111.414669 -16.904508 -90.678430 -6.343362 33.751001 32.908081 0.000000 0.000000 0.000000
0.132471 0.341550 0.080458 15.618517 -1.487706 -15.043731 0.000000 0.000000 -0.000000 -7.268089 27.173426 9.520033 -2.784487 -19.907257 -7.179926 1.136331 -26.030974 -6.292937 -60.455705 51.535298 -153.961819 -56.400477 4.529750 -69.579563 -30.572767 15.645508 -96.359139 0.000000 0.000000 0.000000 -46.353138 -33.776453 15.852046 28.201229 -43.421475 -50.203929 -21.918954 21.646963 30.782234 0.000000 0.000000 0.000000 -11.303706 -0.760595 7.847489 15.070042 -0.998169 1.907963 -28.910748 5.367014 -5.748580 0.000000 0.000000 0.000000 79.483633 44.031107 -19.012394 -94.450282 -20.485568 -47.145511 -3.430471 29.993940 9.623527 0.000000 0.000000 0.000000
0.143211 0.286000 0.075154 13.780657 -1.592789 -14.855543 0.000000 0.000000 0.000000 -7.340591 27.304774 10.239360 -35.046297 -19.072101 -19.777919 -20.074228 -30.234579 -7.764704 -55.943958 53.020399 -155.041767 -57.161403 7.062102 -75.099948 -23.319775 16.531200 -88.397496 0.000000 0.000000 0.000000 -43.376617 -44.739152 16.301038 22.215337 -26.202932 -51.877369 -15.467161 23.957160 22.749816 0.000000 0.000000 0.000000 -10.671735 -0.470266 6.798442 15.463884 -0.830616 2.407346 -34.632947 10.885513 -14.993376 0.000000 0.000000 0.000000 41.932983 28.493313 -13.543602 -57.862638 -23.193459 -4.370933 -46.579823 4.986100 18.952411 0.000000 0.000000 0.000000
0.137813 0.223625 0.082063 13.277108 -1.533257 -12.896011 0.000000 0.000000 0.000000 -7.541572 25.831209 9.090797 -32.987624 -17.128290 -16.181870 -21.981614 -26.439127 -6.506976 -59.546516 49.730962 -146.119532 -61.490078 16.002457 -94.048793 -26.755004 6.647552 -77.527102 0.000000 0.000000 0.000000 -38.135004 -45.847696 16.180843 20.220119 -18.329656 -47.542249 -12.289803 24.848504 18.729622 0.000000 0.000000 0.000000 -11.151115 -0.353098 4.998825 12.823928 -0.940046 3.040464 -33.056991 12.067610 -18.358841 0.000000 0.000000 0.000000 9.951465 10.215140 -6.185323 -25.286494 -11.807602 17.673670 -33.629948 -5.515892 13.321223 0.000000 0.000000 0.000000
0.130237 0.188486 0.084139 13.351149 -1.375664 -9.931032 -0.000000 0.000000 0.000000 -7.914797 21.890519 7.213590 -30.285809 -14.502620 -12.298576 -23.441701 -21.583234 -5.238536 -65.269575 46.383158 -134.040284 -66.662247 25.488058 -113.626038 -28.175914 -3.784752 -66.089229 0.000000 0.000000 0.000000 -38.666348 -42.656485 20.809826 22.842272 -23.204709 -53.608498 -14.892178 25.075767 21.099165 0.000000 0.000000 0.000000 -12.451254 -0.343027 2.540596 7.735037 -1.464486 3.332003 -24.844579 12.528673 -16.895110 0.000000 0.000000 0.000000 -2.599683 2.266417 3.555432 -12.580904 -1.806435 7.721261 -19.771990 -13.588360 10.888886 0.000000 0.000000 0.000000
0.125192 0.182796 0.079184 12.537398 -1.209399 -6.725524 -0.000000 0.000000 0.000000 -8.133878 19.818557 4.907052 -28.206038 -12.499300 -11.353212 -23.138259 -18.621604 -5.884745 -61.552885 43.888517 -122.176140 -60.792539 36.250721 -128.866604 -28.292690 -8.688390 -59.883896 0.000000 0.000000 0.000000 -40.464593 -45.877636 25.332431 25.910991 -26.497106 -63.780397 -18.526106 25.305693 24.921877 0.000000 0.000000 0.000000 -12.305586 0.084628 0.083689 6.713140 -1.705311 2.448003 -23.288769 10.304131 -15.361731 0.000000 0.000000 0.000000 -4.527451 1.471978 4.532991 -8.029249 -0.730091 3.108177 -17.353388 -7.548918 8.509712 0.000000 0.000000 0.000000
0.122115 0.191909 0.070069 11.027285 -1.050492 -4.587511 -0.000000 0.000000 0.000000 -8.224690 18.836197 3.575103 -26.581763 -11.306483 -12.122012 -22.057439 -17.273224 -7.589978 -56.110042 42.152569 -112.365476 -48.854252 46.432181 -122.013546 -25.865731 -13.797847 -53.375319 0.000000 0.000000 0.000000 -43.482499 -46.528507 29.336888 27.165781 -32.669571 -72.732247 -19.729185 24.524357 27.652038 0.000000 0.000000 0.000000 -11.032356 0.440419 -1.754893 7.201854 -1.469139 2.520569 -21.965278 11.302176 -14.922936 0.000000 0.000000 0.000000 -3.851349 1.478747 3.958524 -5.398773 -0.497714 1.851941 -17.495006 -5.563926 7.085027 0.000000 0.000000 0.000000
